<svg viewBox="-200 0 2200 1200" xmlns="http://www.w3.org/2000/svg">
  <style>
    .country {
      fill: #ccd;
      stroke: #333;
      stroke-width: 1;
    }
    .conquered {
      fill: #ffc107;
      stroke: #d32f2f;
      stroke-width: 1.5;
    }
    text {
      font-family: sans-serif;
      font-size: 12px;
      text-anchor: middle;
      dominant-baseline: central;
      pointer-events: none;
      fill: #111;
    }
  </style>

  <g id="1">
    <!-- 北欧 -->
    <rect id="4" class="country" x="410" y="50" width="120" height="80"/><text x="470" y="90">アイスランド</text>
    <rect id="5" class="country" x="800" y="50" width="120" height="80"/><text x="860" y="90">ノルウェー</text>
    <rect id="6" class="country" x="930" y="50" width="120" height="80"/><text x="990" y="90">スウェーデン</text>
    <rect id="7" class="country" x="1060" y="50" width="120" height="80"/><text x="1120" y="90">フィンランド</text>
    <rect id="5" class="country" x="670" y="230" width="120" height="80"/><text x="730" y="270">デンマーク</text>

    <!-- 西ヨーロッパ -->
    <rect id="6" class="country" x="20" y="230" width="120" height="80"/><text x="80" y="270">アイルランド</text>
    <rect id="7" class="country" x="150" y="230" width="120" height="80"/><text x="210" y="270">イギリス</text>
    <rect id="8" class="country" x="540" y="230" width="120" height="80"/><text x="600" y="270">オランダ</text>
    <rect id="9" class="country" x="410" y="320" width="120" height="80"/><text x="470" y="360">ベルギー</text>
    <rect id="10" class="country" x="410" y="410" width="120" height="80"/><text x="470" y="450">ルクセンブルク</text>
    <rect id="11" class="country" x="280" y="410" width="120" height="80"/><text x="340" y="450">フランス</text>
    <rect id="12" class="country" x="280" y="500" width="120" height="80"/><text x="340" y="540">モナコ</text>
    <rect id="13" class="country" x="150" y="410" width="120" height="80"/><text x="210" y="450">アンドラ</text>
    <rect id="14" class="country" x="410" y="500" width="120" height="80"/><text x="470" y="540">スイス</text>
    <rect id="15" class="country" x="540" y="410" width="120" height="80"/><text x="600" y="450">リヒテンシュタイン</text>
    <rect id="16" class="country" x="540" y="320" width="120" height="80"/><text x="600" y="360">ドイツ</text>
    <rect id="17" class="country" x="540" y="500" width="120" height="80"/><text x="600" y="540">オーストリア</text>

    <!-- 南ヨーロッパ -->
    <rect id="18" class="country" x="150" y="500" width="120" height="80"/><text x="210" y="540">スペイン</text>
    <rect id="19" class="country" x="20" y="500" width="120" height="80"/><text x="80" y="540">ポルトガル</text>
    <rect id="20" class="country" x="410" y="770" width="120" height="80"/><text x="470" y="810">イタリア</text>
    <rect id="21" class="country" x="410" y="590" width="120" height="80"/><text x="470" y="630">サンマリノ</text>
    <rect id="22" class="country" x="410" y="680" width="120" height="80"/><text x="470" y="720">バチカン</text>
    <rect id="23" class="country" x="280" y="770" width="120" height="80"/><text x="340" y="810">マルタ</text>
    <rect id="24" class="country" x="800" y="770" width="120" height="80"/><text x="860" y="810">ギリシャ</text>
    <rect id="25" class="country" x="1190" y="770" width="120" height="80"/><text x="1250" y="810">キプロス</text>

    <!-- 中欧・東欧 -->
    <rect id="26" class="country" x="800" y="230" width="120" height="80"/><text x="860" y="270">ポーランド</text>
    <rect id="27" class="country" x="670" y="320" width="120" height="80"/><text x="730" y="360">チェコ</text>
    <rect id="28" class="country" x="800" y="320" width="120" height="80"/><text x="860" y="360">スロバキア</text>
    <rect id="29" class="country" x="800" y="410" width="120" height="80"/><text x="860" y="450">ハンガリー</text>
    <rect id="30" class="country" x="670" y="410" width="120" height="80"/><text x="730" y="450">スロベニア</text>
    <rect id="31" class="country" x="670" y="500" width="120" height="80"/><text x="730" y="540">クロアチア</text>
    <rect id="32" class="country" x="800" y="500" width="120" height="80"/>
		  <text x="860" y="540">ボスニア・<tspan x="860" dy="1.2em">ヘルツェゴビナ</tspan></text>
    <rect id="33" class="country" x="930" y="590" width="120" height="80"/><text x="990" y="630">セルビア</text>
    <rect id="34" class="country" x="930" y="680" width="120" height="80"/><text x="990" y="720">モンテネグロ</text>
    <rect id="35" class="country" x="800" y="590" width="120" height="80"/><text x="860" y="630">コソボ</text>
    <rect id="36" class="country" x="670" y="590" width="120" height="80"/><text x="730" y="630">アルバニア</text>
    <rect id="37" class="country" x="670" y="680" width="120" height="80"/><text x="730" y="720">北マケドニア</text>
    <rect id="38" class="country" x="800" y="680" width="120" height="80"/><text x="860" y="720">ブルガリア</text>
    <rect id="39" class="country" x="930" y="410" width="120" height="80"/><text x="990" y="450">ルーマニア</text>
    <rect id="40" class="country" x="930" y="500" width="120" height="80"/><text x="990" y="540">モルドバ</text>

    <!-- バルト三国 -->
    <rect id="41" class="country" x="930" y="140" width="120" height="80"/><text x="990" y="180">エストニア</text>
    <rect id="42" class="country" x="1060" y="140" width="120" height="80"/><text x="1120" y="180">ラトビア</text>
    <rect id="43" class="country" x="1190" y="140" width="120" height="80"/><text x="1250" y="180">リトアニア</text>

    <!-- 東欧・黒海周辺 -->
    <rect id="44" class="country" x="930" y="230" width="120" height="80"/><text x="990" y="270">ベラルーシ</text>
    <rect id="45" class="country" x="930" y="320" width="120" height="80"/><text x="990" y="360">ウクライナ</text>
    <rect id="46" class="country" x="1060" y="230" width="510" height="170"/><text x="1120" y="270">ロシア</text>
    <rect id="47" class="country" x="1320" y="410" width="120" height="80"/><text x="1380" y="450">ジョージア</text>
    <rect id="48" class="country" x="1320" y="500" width="120" height="80"/><text x="1380" y="540">アルメニア</text>
    <rect id="49" class="country" x="1450" y="410" width="120" height="80"/><text x="1510" y="450">アゼルバイジャン</text>
    <rect id="50" class="country" x="1190" y="590" width="120" height="80"/><text x="1250" y="630">トルコ</text>

  </g>
</svg>
