<<svg viewBox="0 0 2200 1600" xmlns="http://www.w3.org/2000/svg">
  <style>
    .country {
      fill: #ccd;
      stroke: #333;
      stroke-width: 1;
    }
    .conquered {
      fill: #ffc107;
      stroke: #d32f2f;
      stroke-width: 1.5;
    }
    text {
      font-family: sans-serif;
      font-size: 12px;
      text-anchor: middle;
      dominant-baseline: central;
      pointer-events: none;
      fill: #111;
    }
  </style>

  <g id="europe-50">
    <!-- 北欧 -->
    <rect id="iceland" class="country" x="150" y="50" width="120" height="80"/><text x="210" y="90">アイスランド</text>
    <rect id="norway" class="country" x="450" y="50" width="120" height="80"/><text x="510" y="90">ノルウェー</text>
    <rect id="sweden" class="country" x="600" y="50" width="120" height="80"/><text x="660" y="90">スウェーデン</text>
    <rect id="finland" class="country" x="750" y="50" width="120" height="80"/><text x="810" y="90">フィンランド</text>
    <rect id="denmark" class="country" x="600" y="150" width="120" height="80"/><text x="660" y="190">デンマーク</text>

    <!-- 英国・アイルランド -->
    <rect id="ireland" class="country" x="150" y="200" width="120" height="80"/><text x="210" y="240">アイルランド</text>
    <rect id="uk" class="country" x="300" y="200" width="120" height="80"/><text x="360" y="240">イギリス</text>

    <!-- バルト三国 -->
    <rect id="estonia" class="country" x="1200" y="100" width="120" height="80"/><text x="1260" y="140">エストニア</text>
    <rect id="latvia" class="country" x="1050" y="150" width="120" height="80"/><text x="1110" y="190">ラトビア</text>
    <rect id="lithuania" class="country" x="900" y="200" width="120" height="80"/><text x="960" y="240">リトアニア</text>

    <!-- 西欧 -->
    <rect id="france" class="country" x="450" y="300" width="120" height="80"/><text x="510" y="340">フランス</text>
    <rect id="belgium" class="country" x="450" y="200" width="120" height="80"/><text x="510" y="240">ベルギー</text>
    <rect id="netherlands" class="country" x="600" y="200" width="120" height="80"/><text x="660" y="240">オランダ</text>
    <rect id="luxembourg" class="country" x="450" y="400" width="120" height="80"/><text x="510" y="440">ルクセンブルク</text>
    <rect id="monaco" class="country" x="450" y="500" width="120" height="80"/><text x="510" y="540">モナコ</text>
    <rect id="andorra" class="country" x="300" y="500" width="120" height="80"/><text x="360" y="540">アンドラ</text>
    <rect id="spain" class="country" x="300" y="400" width="120" height="80"/><text x="360" y="440">スペイン</text>
    <rect id="portugal" class="country" x="150" y="400" width="120" height="80"/><text x="210" y="440">ポルトガル</text>

    <!-- 中欧 -->
    <rect id="germany" class="country" x="600" y="300" width="120" height="80"/><text x="660" y="340">ドイツ</text>
    <rect id="switzerland" class="country" x="600" y="400" width="120" height="80"/><text x="660" y="440">スイス</text>
    <rect id="austria" class="country" x="750" y="400" width="120" height="80"/><text x="810" y="440">オーストリア</text>
    <rect id="czech" class="country" x="750" y="300" width="120" height="80"/><text x="810" y="340">チェコ</text>
    <rect id="slovakia" class="country" x="900" y="300" width="120" height="80"/><text x="960" y="340">スロバキア</text>
    <rect id="hungary" class="country" x="900" y="400" width="120" height="80"/><text x="960" y="440">ハンガリー</text>
    <rect id="slovenia" class="country" x="750" y="500" width="120" height="80"/><text x="810" y="540">スロベニア</text>
    <rect id="liechtenstein" class="country" x="600" y="500" width="120" height="80"/><text x="660" y="540">リヒテンシュタイン</text>

    <!-- 東欧 -->
    <rect id="poland" class="country" x="750" y="200" width="120" height="80"/><text x="810" y="240">ポーランド</text>
    <rect id="belarus" class="country" x="900" y="100" width="120" height="80"/><text x="960" y="140">ベラルーシ</text>
    <rect id="ukraine" class="country" x="1050" y="300" width="120" height="80"/><text x="1110" y="340">ウクライナ</text>
    <rect id="moldova" class="country" x="1050" y="400" width="120" height="80"/><text x="1110" y="440">モルドバ</text>
    <rect id="russia" class="country" x="1350" y="100" width="120" height="80"/><text x="1410" y="140">ロシア</text>

    <!-- 南欧 -->
    <rect id="italy" class="country" x="750" y="600" width="120" height="80"/><text x="810" y="640">イタリア</text>
    <rect id="san-marino" class="country" x="750" y="700" width="120" height="80"/><text x="810" y="740">サンマリノ</text>
    <rect id="vatican" class="country" x="750" y="800" width="120" height="80"/><text x="810" y="840">バチカン</text>
    <rect id="malta" class="country" x="900" y="800" width="120" height="80"/><text x="960" y="840">マルタ</text>
    <rect id="greece" class="country" x="1050" y="600" width="120" height="80"/><text x="1110" y="640">ギリシャ</text>
    <rect id="albania" class="country" x="900" y="600" width="120" height="80"/><text x="960" y="640">アルバニア</text>
    <rect id="serbia" class="country" x="900" y="500" width="120" height="80"/><text x="960" y="540">セルビア</text>
    <rect id="croatia" class="country" x="750" y="500" width="120" height="80"/><text x="810" y="540">クロアチア</text>
    <rect id="bosnia" class="country" x="1050" y="500" width="120" height="80"/><text x="1110" y="540">ボスニア・ヘルツェゴビナ</text>
    <rect id="montenegro" class="country" x="1050" y="700" width="120" height="80"/><text x="1110" y="740">モンテネグロ</text>
    <rect id="kosovo" class="country" x="1200" y="600" width="120" height="80"/><text x="1260" y="640">コソボ</text>
    <rect id="north-macedonia" class="country" x="1200" y="700" width="120" height="80"/><text x="1260" y="740">北マケドニア</text>
    <rect id="bulgaria" class="country" x="1200" y="500" width="120" height="80"/><text x="1260" y="540">ブルガリア</text>
    <rect id="romania" class="country" x="1200" y="400" width="120" height="80"/><text x="1260" y="440">ルーマニア</text>

    <!-- カフカス・東南 -->
    <rect id="georgia" class="country" x="1500" y="400" width="120" height="80"/><text x="1560" y="440">ジョージア</text>
    <rect id="armenia" class="country" x="1500" y="500" width="120" height="80"/><text x="1560" y="540">アルメニア</text>
    <rect id="azerbaijan" class="country" x="1500" y="600" width="120" height="80"/><text x="1560" y="640">アゼルバイジャン</text>
    <rect id="turkey" class="country" x="1350" y="600" width="120" height="80"/><text x="1410" y="640">トルコ</text>
    <rect id="cyprus" class="country" x="1350" y="700" width="120" height="80"/><text x="1410" y="740">キプロス</text>
  </g>
</svg>
