<svg viewBox="0 0 4400 3200" xmlns="http://www.w3.org/2000/svg">
  <style>
    .country {
      fill: #ccd;
      stroke: #333;
      stroke-width: 2;
    }
    .conquered {
      fill: #ffc107;
      stroke: #d32f2f;
      stroke-width: 2.5;
    }
    text {
      font-family: sans-serif;
      font-size: 24px;
      text-anchor: middle;
      dominant-baseline: central;
      pointer-events: none;
      fill: #111;
    }
  </style>

  <g id="europe-50">

    <!-- 北欧 -->
    <rect id="iceland" class="country" x="300" y="100" width="180" height="120"/><text x="390" y="160">アイスランド</text>
    <rect id="norway" class="country" x="900" y="100" width="180" height="120"/><text x="990" y="160">ノルウェー</text>
    <rect id="sweden" class="country" x="1200" y="100" width="180" height="120"/><text x="1290" y="160">スウェーデン</text>
    <rect id="finland" class="country" x="1500" y="100" width="180" height="120"/><text x="1590" y="160">フィンランド</text>
    <rect id="denmark" class="country" x="1200" y="300" width="180" height="120"/><text x="1290" y="360">デンマーク</text>

    <!-- 英国・アイルランド -->
    <rect id="ireland" class="country" x="300" y="400" width="180" height="120"/><text x="390" y="460">アイルランド</text>
    <rect id="uk" class="country" x="600" y="400" width="180" height="120"/><text x="690" y="460">イギリス</text>

    <!-- バルト三国 -->
    <rect id="estonia" class="country" x="2400" y="200" width="180" height="120"/><text x="2490" y="260">エストニア</text>
    <rect id="latvia" class="country" x="2100" y="300" width="180" height="120"/><text x="2190" y="360">ラトビア</text>
    <rect id="lithuania" class="country" x="1800" y="400" width="180" height="120"/><text x="1890" y="460">リトアニア</text>

    <!-- 西欧 -->
    <rect id="france" class="country" x="900" y="700" width="180" height="120"/><text x="990" y="760">フランス</text>
    <rect id="belgium" class="country" x="900" y="500" width="180" height="120"/><text x="990" y="560">ベルギー</text>
    <rect id="netherlands" class="country" x="1200" y="500" width="180" height="120"/><text x="1290" y="560">オランダ</text>
    <rect id="luxembourg" class="country" x="900" y="900" width="180" height="120"/><text x="990" y="960">ルクセンブルク</text>
    <rect id="monaco" class="country" x="900" y="1100" width="180" height="120"/><text x="990" y="1160">モナコ</text>
    <rect id="andorra" class="country" x="600" y="1100" width="180" height="120"/><text x="690" y="1160">アンドラ</text>
    <rect id="spain" class="country" x="600" y="900" width="180" height="120"/><text x="690" y="960">スペイン</text>
    <rect id="portugal" class="country" x="300" y="900" width="180" height="120"/><text x="390" y="960">ポルトガル</text>
    <rect id="gibraltar" class="country" x="600" y="1300" width="180" height="120"/><text x="690" y="1360">ジブラルタル</text>

    <!-- 中欧 -->
    <rect id="germany" class="country" x="1200" y="700" width="180" height="120"/><text x="1290" y="760">ドイツ</text>
    <rect id="switzerland" class="country" x="1200" y="900" width="180" height="120"/><text x="1290" y="960">スイス</text>
    <rect id="austria" class="country" x="1500" y="900" width="180" height="120"/><text x="1590" y="960">オーストリア</text>
    <rect id="czech" class="country" x="1500" y="700" width="180" height="120"/><text x="1590" y="760">チェコ</text>
    <rect id="slovakia" class="country" x="1800" y="700" width="180" height="120"/><text x="1890" y="760">スロバキア</text>
    <rect id="hungary" class="country" x="1800" y="900" width="180" height="120"/><text x="1890" y="960">ハンガリー</text>
    <rect id="slovenia" class="country" x="1500" y="1100" width="180" height="120"/><text x="1590" y="1160">スロベニア</text>
    <rect id="liechtenstein" class="country" x="1200" y="1100" width="180" height="120"/><text x="1290" y="1160">リヒテンシュタイン</text>

    <!-- 東欧 -->
    <rect id="poland" class="country" x="1500" y="500" width="180" height="120"/><text x="1590" y="560">ポーランド</text>
    <rect id="belarus" class="country" x="1800" y="200" width="180" height="120"/><text x="1890" y="260">ベラルーシ</text>
    <rect id="ukraine" class="country" x="2100" y="700" width="180" height="120"/><text x="2190" y="760">ウクライナ</text>
    <rect id="moldova" class="country" x="2100" y="900" width="180" height="120"/><text x="2190" y="960">モルドバ</text>
    <rect id="russia" class="country" x="2700" y="200" width="180" height="120"/><text x="2790" y="260">ロシア</text>

    <!-- 南欧 -->
    <rect id="italy" class="country" x="1500" y="1300" width="180" height="120"/><text x="1590" y="1360">イタリア</text>
    <rect id="san-marino" class="country" x="1500" y="1500" width="180" height="120"/><text x="1590" y="1560">サンマリノ</text>
    <rect id="vatican" class="country" x="1500" y="1700" width="180" height="120"/><text x="1590" y="1760">バチカン</text>
    <rect id="malta" class="country" x="1800" y="1700" width="180" height="120"/><text x="1890" y="1760">マルタ</text>
    <rect id="greece" class="country" x="2100" y="1300" width="180" height="120"/><text x="2190" y="1360">ギリシャ</text>
    <rect id="albania" class="country" x="1800" y="1300" width="180" height="120"/><text x="1890" y="1360">アルバニア</text>
    <rect id="serbia" class="country" x="1800" y="1100" width="180" height="120"/><text x="1890" y="1160">セルビア</text>
    <rect id="croatia" class="country" x="1500" y="1100" width="180" height="120"/><text x="1590" y="1160">クロアチア</text>
    <rect id="bosnia" class="country" x="2100" y="1100" width="180" height="120"/><text x="2190" y="1160">ボスニア・ヘルツェゴビナ</text>
    <rect id="montenegro" class="country" x="2100" y="1500" width="180" height="120"/><text x="2190" y="1560">モンテネグロ</text>
    <rect id="kosovo" class="country" x="2400" y="1300" width="180" height="120"/><text x="2490" y="1360">コソボ</text>
    <rect id="north-macedonia" class="country" x="2400" y="1500" width="180" height="120"/><text x="2490" y="1560">北マケドニア</text>
    <rect id="bulgaria" class="country" x="2400" y="1100" width="180" height="120"/><text x="2490" y="1160">ブルガリア</text>
    <rect id="romania" class="country" x="2400" y="900" width="180" height="120"/><text x="2490" y="960">ルーマニア</text>

    <!-- カフカス・東南 -->
    <rect id="georgia" class="country" x="3000" y="900" width="180" height="120"/><text x="3090" y="960">ジョージア</text>
    <rect id="armenia" class="country" x="3000" y="1100" width="180" height="120"/><text x="3090" y="1160">アルメニア</text>
    <rect id="azerbaijan" class="country" x="3000" y="1300" width="180" height="120"/><text x="3090" y="1360">アゼルバイジャン</text>
    <rect id="turkey" class="country" x="2700" y="1300" width="180" height="120"/><text x="2790" y="1360">トルコ</text>
    <rect id="cyprus" class="country" x="2700" y="1500" width="180" height="120"/><text x="2790" y="1560">キプロス</text>

  </g>
</svg>


