<svg viewBox="-800 0 1800 1400" xmlns="http://www.w3.org/2000/svg">
  <style>
    .country, .state, .pref {
      fill: #ccd;
      stroke: #333;
      stroke-width: 1;
      rx: 5;
      ry: 5;
    }
    .country:hover, .state:hover, .pref:hover {
      fill: #bdbdbd;
    }
    .conquered {
      fill: #ffc107;
      stroke: #d32f2f;
      stroke-width: 1.5;
    }
    text {
      font-family: sans-serif;
      font-size: 12px;
      text-anchor: middle;
      dominant-baseline: central;
      pointer-events: none;
      fill: #111;
    }
  </style>
  <g id="zipangu-prefectures">
    <!-- 北海道 -->
    <rect id="1" class="pref" x="700" y="10" width="125" height="75" /><text x="762.5" y="47.5">道北</text>
    <rect id="2" class="pref" x="825" y="10" width="125" height="75" /><text x="887.5" y="47.5">道東</text>
    <rect id="3" class="pref" x="700" y="85" width="125" height="75" /><text x="762.5" y="122.5">道西</text>
    <rect id="4" class="pref" x="825" y="85" width="125" height="75" /><text x="887.5" y="122.5">道南</text>

    <!-- 東北 -->
    <rect id="5" class="pref" x="650" y="170" width="120" height="80" /><text x="710" y="210">青森</text>
    <rect id="6" class="pref" x="520" y="170" width="120" height="80" /><text x="580" y="210">秋田</text>
    <rect id="7" class="pref" x="650" y="260" width="120" height="80" /><text x="710" y="300">岩手</text>
    <rect id="8" class="pref" x="520" y="260" width="120" height="80" /><text x="580" y="300">山形</text>
    <rect id="9" class="pref" x="650" y="350" width="120" height="80" /><text x="710" y="390">宮城</text>
    <rect id="10" class="pref" x="650" y="440" width="120" height="80" /><text x="710" y="480">福島</text>

    <!-- 関東 -->
    <rect id="11" class="pref" x="520" y="440" width="120" height="80" /><text x="580" y="480">群馬</text>
    <rect id="12" class="pref" x="520" y="350" width="120" height="80" /><text x="580" y="390">栃木</text>
    <rect id="13" class="pref" x="650" y="530" width="120" height="80" /><text x="710" y="570">茨城</text>
    <rect id="14" class="pref" x="520" y="530" width="120" height="80" /><text x="580" y="570">埼玉</text>
    <rect id="15" class="pref" x="520" y="620" width="120" height="80" /><text x="580" y="660">東京</text>
    <rect id="16" class="pref" x="650" y="620" width="120" height="80" /><text x="710" y="660">千葉</text>
    <rect id="17" class="pref" x="520" y="710" width="120" height="80" /><text x="580" y="750">神奈川</text>

    <!-- 中部 -->
    <rect id="18" class="pref" x="390" y="350" width="120" height="80" /><text x="450" y="390">新潟</text>
    <rect id="19" class="pref" x="260" y="440" width="120" height="80" /><text x="320" y="480">富山</text>
    <rect id="20" class="pref" x="130" y="440" width="120" height="80" /><text x="190" y="480">石川</text>
    <rect id="21" class="pref" x="130" y="530" width="120" height="80" /><text x="190" y="570">福井</text>
    <rect id="22" class="pref" x="390" y="440" width="120" height="80" /><text x="450" y="480">長野</text>
    <rect id="23" class="pref" x="390" y="620" width="120" height="80" /><text x="450" y="660">山梨</text>
    <rect id="24" class="pref" x="260" y="530" width="120" height="80" /><text x="320" y="570">岐阜</text>
    <rect id="25" class="pref" x="390" y="710" width="120" height="80" /><text x="450" y="750">静岡</text>
    <rect id="26" class="pref" x="260" y="620" width="120" height="80" /><text x="320" y="660">愛知</text>

    <!-- 近畿 -->
    <rect id="27" class="pref" x="130" y="620" width="120" height="80" /><text x="190" y="660">滋賀</text>
    <rect id="28" class="pref" x="260" y="710" width="120" height="80" /><text x="320" y="750">三重</text>
    <rect id="29" class="pref" x="0" y="620" width="120" height="80" /><text x="60" y="660">京都</text>
    <rect id="30" class="pref" x="130" y="710" width="120" height="80" /><text x="190" y="750">奈良</text>
    <rect id="31" class="pref" x="0" y="710" width="120" height="80" /><text x="60" y="750">大阪</text>
    <rect id="32" class="pref" x="-130" y="710" width="120" height="80" /><text x="-70" y="750">兵庫</text>
    <rect id="33" class="pref" x="-260" y="710" width="120" height="80" /><text x="-200" y="750">岡山</text>
    <rect id="34" class="pref" x="130" y="800" width="120" height="80" /><text x="190" y="840">和歌山</text>

    <!-- 中国 -->
    <rect id="35" class="pref" x="-260" y="620" width="120" height="80" /><text x="-200" y="660">鳥取</text>
    <rect id="36" class="pref" x="-390" y="620" width="120" height="80" /><text x="-330" y="660">島根</text>
    <rect id="37" class="pref" x="-390" y="710" width="120" height="80" /><text x="-330" y="750">広島</text>
    <rect id="38" class="pref" x="-520" y="710" width="120" height="80" /><text x="-460" y="750">山口</text>

    <!-- 四国 -->
    <rect id="39" class="pref" x="-130" y="830" width="120" height="80" /><text x="-70" y="870">香川</text>
    <rect id="40" class="pref" x="-130" y="920" width="120" height="80" /><text x="-70" y="960">徳島</text>
    <rect id="41" class="pref" x="-260" y="830" width="120" height="80" /><text x="-200" y="870">愛媛</text>
    <rect id="42" class="pref" x="-260" y="920" width="120" height="80" /><text x="-200" y="960">高知</text>

    <!-- 九州・沖縄 -->
    <rect id="43" class="pref" x="-520" y="830" width="120" height="80" /><text x="-460" y="870">福岡</text>
    <rect id="44" class="pref" x="-520" y="920" width="120" height="80" /><text x="-460" y="960">大分</text>
    <rect id="45" class="pref" x="-650" y="920" width="120" height="80" /><text x="-590" y="960">佐賀</text>
    <rect id="46" class="pref" x="-780" y="920" width="120" height="80" /><text x="-720" y="960">長崎</text>
    <rect id="47" class="pref" x="-650" y="1010" width="120" height="80" /><text x="-590" y="1050">熊本</text>
    <rect id="48" class="pref" x="-520" y="1010" width="120" height="80" /><text x="-460" y="1050">宮崎</text>
    <rect id="49" class="pref" x="-650" y="1100" width="120" height="80" /><text x="-590" y="1140">鹿児島</text>
    <rect id="50" class="pref" x="-770" y="1250" width="120" height="80" /><text x="-710" y="1290">沖縄</text>
  </g>
</svg>